<?xml version="1.0"?>
<svg xmlns="http://www.w3.org/2000/svg" viewBox="0 0 64 64" width="512" height="512"><g id="flat"><polygon points="61 32 23 32 33 22 61 32" style="fill:#7fcac9"/><polygon points="12 43 23 32 61 32 12 43" style="fill:#3b73a5"/><polygon points="21 34 13 34 19 28 27 28 21 34" style="fill:#265070"/><rect x="14" y="22" width="14" height="2" style="fill:#98a5a6"/><rect x="2" y="37" width="10" height="2" style="fill:#98a5a6"/><rect x="2" y="26" width="12" height="2" style="fill:#98a5a6"/><rect x="10" y="22" width="2" height="2" style="fill:#98a5a6"/><rect x="4" y="31" width="6" height="2" style="fill:#98a5a6"/><path d="M26.852,16A3.807,3.807,0,0,0,27,15a4.09,4.09,0,0,0-4.174-4,4.273,4.273,0,0,0-1.322.225A6.238,6.238,0,0,0,15.522,7a6.208,6.208,0,0,0-6.094,4.642A4.277,4.277,0,0,0,7.174,11,4.09,4.09,0,0,0,3,15a3.807,3.807,0,0,0,.148,1Z" style="fill:#d1f5c9"/><path d="M60.852,57A3.807,3.807,0,0,0,61,56a4.09,4.09,0,0,0-4.174-4,4.273,4.273,0,0,0-1.322.225,6.334,6.334,0,0,0-12.076.417A4.277,4.277,0,0,0,41.174,52,4.09,4.09,0,0,0,37,56a3.807,3.807,0,0,0,.148,1Z" style="fill:#d1f5c9"/></g></svg>
